<svg xmlns="http://www.w3.org/2000/svg" viewBox="0 0 24 24" width="24" height="24">
  <!-- Main earbud body -->
  <path d="M12 2C8.13 2 5 5.13 5 9v7.5c0 1.38 1.12 2.5 2.5 2.5h1c.83 0 1.5-.67 1.5-1.5v-5c0-.83-.67-1.5-1.5-1.5h-1c-.57 0-1.08.2-1.5.53V9c0-3.31 2.69-6 6-6s6 2.69 6 6v2.53c-.42-.33-.93-.53-1.5-.53h-1c-.83 0-1.5.67-1.5 1.5v5c0 .83.67 1.5 1.5 1.5h1c1.38 0 2.5-1.12 2.5-2.5V9c0-3.87-3.13-7-7-7z" fill="currentColor"/>

  <!-- Earbud tip -->
  <path d="M10 14.5v3c0 .83-.67 1.5-1.5 1.5h-1c-.83 0-1.5-.67-1.5-1.5v-3c0-.83.67-1.5 1.5-1.5h1c.83 0 1.5.67 1.5 1.5z" fill="currentColor"/>
  <path d="M18 14.5v3c0 .83-.67 1.5-1.5 1.5h-1c-.83 0-1.5-.67-1.5-1.5v-3c0-.83.67-1.5 1.5-1.5h1c.83 0 1.5.67 1.5 1.5z" fill="currentColor"/>

  <!-- Earbud connector -->
  <path d="M12 17c-.55 0-1 .45-1 1v2c0 .55.45 1 1 1s1-.45 1-1v-2c0-.55-.45-1-1-1z" fill="currentColor"/>
</svg>
