<svg width="1352" height="1352" viewBox="0 0 1352 1352" fill="none" xmlns="http://www.w3.org/2000/svg">
<path d="M537.637 600.561L519.857 613.691V852.857V1055.44V1072.33L516.113 1087.33L511.434 1102.34L503.948 1118.28L493.654 1135.17L484.296 1147.36L472.13 1158.61L463.707 1165.18L449.67 1172.68L433.761 1180.19L418.788 1183H403.815H392.585L376.676 1180.19L360.767 1175.5L346.73 1168.93L329.885 1158.61L317.719 1147.36L302.746 1130.48L293.388 1110.78L287.773 1092.02L283.094 1072.33V1055.44V717.799L275.607 720.613L267.185 724.364L251.276 729.992H240.982H220.394H198.87H184.833H172.667L156.758 724.364L142.721 717.799L128.684 711.234L117.454 703.73L106.224 696.227L97.8015 687.786L86.5716 678.407L79.0851 669.028L66.9194 655.897L58.497 642.766L49.1388 627.76L43.5239 613.691L35.1015 594.933L28.5507 581.803L24.8075 564.92L22 550.852V539.597V529.28V513.336V503.956L24.8075 492.702L28.5507 479.571L35.1015 463.627L43.5239 450.496L52.8821 436.427L61.3045 425.172L71.5985 414.855L86.5716 399.849L96.8657 392.346L114.646 379.215L130.555 371.712L134.299 360.457L141.785 347.326L149.272 333.258L158.63 319.189L171.731 300.431L187.64 283.549L203.549 266.666L220.394 250.722L240.982 235.715L264.378 218.833L285.901 205.703L313.976 191.634L336.436 182.255L359.831 175.69L385.099 171H408.494H438.44H456.221L481.488 175.69L503.948 182.255L525.472 191.634L550.739 206.64L571.327 219.771L591.915 241.343L607.824 260.101L619.99 279.797L632.155 304.183L644.321 334.196L649 359.519V381.091V410.166L644.321 436.427L635.898 465.502L627.476 488.012L616.246 510.522L604.081 530.218L588.172 548.038L576.006 564.92L561.033 579.927L537.637 600.561Z" fill="black" stroke="black"/>
<path d="M812.718 599.561L830.555 612.691V851.857V1054.44V1071.33L834.31 1086.33L839.004 1101.34L846.515 1117.28L856.842 1134.17L866.23 1146.36L878.434 1157.61L886.884 1164.18L900.966 1171.68L916.925 1179.19L931.946 1182H946.967H958.233L974.193 1179.19L990.152 1174.5L1004.23 1167.93L1021.13 1157.61L1033.34 1146.36L1048.36 1129.48L1057.75 1109.78L1063.38 1091.02L1068.07 1071.33V1054.44V716.799L1075.58 719.613L1084.03 723.364L1099.99 728.992H1110.32H1130.97H1152.57H1166.65H1178.85L1194.81 723.364L1208.89 716.799L1222.98 710.234L1234.24 702.73L1245.51 695.227L1253.96 686.786L1265.22 677.407L1272.73 668.028L1284.94 654.897L1293.39 641.766L1302.77 626.76L1308.41 612.691L1316.86 593.933L1323.43 580.803L1327.18 563.92L1330 549.852V538.597V528.28V512.336V502.956L1327.18 491.702L1323.43 478.571L1316.86 462.627L1308.41 449.496L1299.02 435.427L1290.57 424.172L1280.24 413.855L1265.22 398.849L1254.9 391.346L1237.06 378.215L1221.1 370.712L1217.34 359.457L1209.83 346.326L1202.32 332.258L1192.93 318.189L1179.79 299.431L1163.83 282.549L1147.87 265.666L1130.97 249.722L1110.32 234.715L1086.85 217.833L1065.26 204.703L1037.09 190.634L1014.56 181.255L991.091 174.69L965.743 170H942.273H912.231H894.394L869.046 174.69L846.515 181.255L824.922 190.634L799.575 205.64L778.921 218.771L758.267 240.343L742.307 259.101L730.103 278.797L717.898 303.183L705.694 333.196L701 358.519V380.091V409.166L705.694 435.427L714.143 464.502L722.593 487.012L733.858 509.522L746.063 529.218L762.022 547.038L774.227 563.92L789.248 578.927L812.718 599.561Z" fill="black" stroke="black"/>
</svg>
